# xmcd CD database file
#
# Track frame offsets:
#	150
#	38402
#	53087
#	78625
#	102845
#	135212
#	156109
#	174570
#	198740
#	220787
#
# Disc length: 3117 seconds
#
# Revision: 0
# Processed by: cddbd v1.5.2PL0 Copyright (c) Steve Scherf et al.
# Submitted via: CDex 1.51
#
DISCID=7c0c2b0a
DTITLE=Betty Joplin - Blinded By Love
DYEAR=1996
DGENRE=Jazz
TTITLE0=Blinded By Love
TTITLE1=At The Dark End Of The Street
TTITLE2=Please Send Me Someone To Love
TTITLE3=The Masquerade Is Over
TTITLE4=I'm Gettin' 'Long Alright
TTITLE5=It's Just A Matter Of Time
TTITLE6=Stormy Weather
TTITLE7=Go Now
TTITLE8=Taint Nobody's Bizness If I Do
TTITLE9=Looking
EXTD=YEAR: 1996
EXTT0=
EXTT1=
EXTT2=
EXTT3=
EXTT4=
EXTT5=
EXTT6=
EXTT7=
EXTT8=
EXTT9=
PLAYORDER=
